<svg width="20" height="21" viewBox="0 0 20 21" fill="none" xmlns="http://www.w3.org/2000/svg">
<g clip-path="url(#clip0_523_28)">
<path d="M17.8167 15.296C17.8463 15.296 17.8751 15.2993 17.9035 15.3051C18.09 14.9636 18.2601 14.6053 18.4137 14.2308C18.4167 14.2233 18.4197 14.2161 18.4233 14.209C18.6541 13.6373 18.8283 13.0436 18.9456 12.4283C19.0366 11.951 19.0928 11.4616 19.1141 10.9601H16.3646C16.3146 12.4254 15.8979 13.8706 15.1212 15.296H17.8167ZM17.3374 16.2165H14.5682C13.7277 17.495 12.5953 18.7578 11.1765 20.0049C11.399 19.9758 11.6191 19.9385 11.8365 19.8929C12.43 19.7683 13.0025 19.5824 13.5535 19.3351L13.5532 19.3344C14.1132 19.0815 14.6349 18.7855 15.1171 18.4459C15.6004 18.1055 16.0483 17.7187 16.4599 17.2846L16.4616 17.2829C16.7801 16.9498 17.0719 16.5942 17.3374 16.2165ZM8.82331 20.0047C7.40468 18.7578 6.27235 17.495 5.43169 16.2165H2.66295C2.92841 16.5942 3.22008 16.9498 3.53844 17.2829L3.54007 17.2848C3.95186 17.7189 4.39978 18.1055 4.88285 18.4459C5.36495 18.7855 5.8866 19.0815 6.44683 19.3344C6.45383 19.3377 6.46083 19.3409 6.46766 19.3445C7.0121 19.587 7.57754 19.7697 8.16364 19.8929C8.38109 19.9385 8.60082 19.9758 8.82331 20.0047ZM2.09181 15.296H4.87862C4.10208 13.8706 3.68525 12.4254 3.63561 10.9601H0.886238C0.907397 11.4616 0.96355 11.9509 1.05453 12.4282C1.17319 13.0513 1.35043 13.6525 1.58579 14.231L1.58644 14.2308C1.73862 14.602 1.90692 14.9573 2.09181 15.296ZM0.886238 10.0399H3.6527C3.75443 8.60429 4.20804 7.15899 5.02104 5.70395H2.09181C1.90692 6.04268 1.73862 6.39798 1.58644 6.76934C1.58335 6.77669 1.58009 6.78404 1.57684 6.79105C1.34588 7.36288 1.17188 7.95658 1.05453 8.57182C0.96355 9.04915 0.907397 9.5386 0.886238 10.0399ZM2.66295 4.78366H5.58257C6.41395 3.52566 7.51325 2.26032 8.885 0.98763C8.64151 1.01754 8.40111 1.05736 8.1638 1.10726C7.57021 1.23185 6.99778 1.41796 6.44683 1.66508L6.44699 1.66559C5.88677 1.91869 5.36512 2.21452 4.88302 2.55427C4.39994 2.8947 3.95202 3.28145 3.54023 3.71536L3.53844 3.71707C3.22008 4.05033 2.92841 4.4058 2.66295 4.78366ZM11.1148 0.987459C12.4866 2.26015 13.5859 3.52549 14.4174 4.78349H17.3372C17.0718 4.4058 16.7799 4.05016 16.4614 3.71707L16.4598 3.71536C16.0481 3.28128 15.6002 2.8947 15.117 2.55427C14.6347 2.21452 14.1131 1.91869 13.553 1.66559C13.546 1.66251 13.539 1.6591 13.5323 1.65551C12.9877 1.41317 12.4223 1.23031 11.8364 1.10726C11.5991 1.05736 11.3583 1.01754 11.1148 0.987459ZM17.9082 5.70395H14.9788C15.792 7.15899 16.2456 8.60429 16.3473 10.0399H19.1139C19.0926 9.53843 19.0363 9.04915 18.9455 8.57182C18.8267 7.94872 18.6496 7.3475 18.4142 6.769L18.4136 6.76934C18.2614 6.39798 18.0932 6.04268 17.9082 5.70395ZM7.99258 0.204738C8.64232 0.068189 9.3116 0 10.0001 0C10.6886 0 11.3577 0.068189 12.0074 0.204738C12.6477 0.339407 13.2701 0.541411 13.8748 0.81092C13.8831 0.813996 13.8911 0.817243 13.8989 0.820832C14.5016 1.09325 15.0703 1.41642 15.6032 1.79223C16.1351 2.16684 16.6271 2.59153 17.0788 3.06748C17.532 3.54173 17.9365 4.05853 18.2931 4.61669C18.6507 5.17639 18.9588 5.77334 19.2183 6.40652L19.2176 6.40669L19.2183 6.40823C19.4798 7.05047 19.6755 7.71185 19.805 8.39221C19.9351 9.07444 19.9998 9.77718 19.9998 10.5001C19.9998 11.223 19.9351 11.9259 19.805 12.6081C19.6769 13.2801 19.4842 13.934 19.2277 14.5687C19.2248 14.5772 19.2217 14.5856 19.2181 14.5938C18.9587 15.227 18.6507 15.8238 18.293 16.3835C17.9363 16.9418 17.5319 17.4584 17.0786 17.9327C16.6269 18.4086 16.1347 18.8335 15.603 19.2079C15.0703 19.5836 14.5014 19.9071 13.8987 20.1793L13.8984 20.1787L13.8968 20.1793C13.2851 20.4538 12.6551 20.6592 12.0073 20.7953C11.3575 20.9318 10.6882 21 9.99992 21C9.3116 21 8.64216 20.9318 7.99242 20.7953C7.35227 20.6608 6.72971 20.4586 6.12489 20.1893C6.11691 20.186 6.10894 20.1829 6.10096 20.1792C5.49793 19.9069 4.92956 19.5836 4.39652 19.2078C3.86494 18.8333 3.37275 18.4085 2.92109 17.9325C2.46779 17.4583 2.06333 16.9415 1.70672 16.3833C1.34897 15.8238 1.04102 15.2268 0.781582 14.5936L0.782233 14.5933L0.781582 14.5918C0.520187 13.9495 0.324547 13.2881 0.194989 12.6078C0.0651047 11.9257 0 11.223 0 10.4999C0 9.77718 0.0651047 9.07427 0.195151 8.39204C0.323245 7.71989 0.515792 7.0662 0.772304 6.4313C0.775234 6.42293 0.778327 6.41438 0.781745 6.40618C1.04119 5.773 1.34897 5.17604 1.70688 4.61635C2.06366 4.05819 2.46812 3.54139 2.92125 3.06714C3.37291 2.59118 3.8651 2.1665 4.39668 1.79188C4.92973 1.41625 5.49825 1.0929 6.10112 0.82049L6.10129 0.821174L6.10275 0.82049C6.71457 0.546367 7.34462 0.340945 7.99258 0.204738ZM10.4384 1.5839V4.78366H13.3398C12.5774 3.72818 11.6114 2.66176 10.4384 1.5839ZM10.4384 5.70395V10.0399H15.4713C15.3575 8.61592 14.8546 7.17079 13.9547 5.70395H10.4384ZM10.4384 10.9601V15.296H14.1022C14.9694 13.8612 15.435 12.4157 15.4907 10.9601H10.4384ZM10.4384 16.2165V19.4554C11.6827 18.3816 12.7011 17.3019 13.4895 16.2165H10.4384ZM9.56176 19.4558V16.2165H6.51047C7.29873 17.3019 8.31713 18.3818 9.56176 19.4558ZM9.56176 15.296V10.9601H4.50948C4.56498 12.4159 5.03048 13.8612 5.898 15.296H9.56176ZM9.56176 10.0399V5.70395H6.04546C5.14555 7.17079 4.64262 8.61609 4.52868 10.0399H9.56176ZM9.56176 4.78366V1.58356C8.38874 2.66142 7.42259 3.72818 6.66021 4.78366H9.56176Z" fill="#FF4B38"/>
</g>
<defs>
<clipPath id="clip0_523_28">
<rect width="20" height="21" fill="white"/>
</clipPath>
</defs>
</svg>
