<svg width="20" height="21" viewBox="0 0 20 21" fill="none" xmlns="http://www.w3.org/2000/svg">
<g clip-path="url(#clip0_523_25)">
<path fill-rule="evenodd" clip-rule="evenodd" d="M2.11605 0H17.884C19.048 0 20 0.999585 20 2.22185V18.7781C20 20.0004 19.048 21 17.884 21H2.11605C0.951986 21 0 20.0004 0 18.7781V2.22185C0 0.999585 0.951986 0 2.11605 0ZM3.44987 5.67297C4.51253 6.44031 5.56999 7.21106 6.46029 8.20637C5.94792 10.5771 7.98796 12.4694 9.85042 13.5868C10.5765 14.0227 10.8973 14.3302 11.7077 14.1815L14.9015 17.4653C8.89453 19.5839 2.15332 10.6962 3.44987 5.67297ZM12.5309 13.339L13.2314 12.5901C13.4355 12.3746 13.7692 12.3729 13.9733 12.5819L16.554 15.2525C16.7598 15.4658 16.7622 15.8149 16.561 16.0313L15.8594 16.778C15.6585 16.9952 15.3257 16.9952 15.1188 16.7867L12.5371 14.116C12.3317 13.9033 12.3289 13.5533 12.5309 13.339ZM4.07666 4.1031L4.58594 3.45591C4.8029 3.17769 5.19971 3.13616 5.46257 3.36482L8.10449 5.6511C8.36995 5.8801 8.40869 6.29624 8.19124 6.57344L7.68262 7.22097C7.46533 7.49697 7.06999 7.5373 6.80452 7.30984L4.16048 5.02271C3.8973 4.7949 3.85921 4.37825 4.07666 4.1031Z" fill="#FF4B38"/>
</g>
<defs>
<clipPath id="clip0_523_25">
<rect width="20" height="21" fill="white"/>
</clipPath>
</defs>
</svg>
